<mxfile host="app.diagrams.net" agent="Mozilla/5.0 (Macintosh; Intel Mac OS X 10_15_7) AppleWebKit/605.1.15 (KHTML, like Gecko) Version/16.5 Safari/605.1.15" version="27.0.9">
  <diagram name="Страница — 1" id="oIGkv35JSirXxDSVPZw_">
    <mxGraphModel dx="969" dy="-1757" grid="1" gridSize="10" guides="1" tooltips="1" connect="1" arrows="1" fold="1" page="1" pageScale="1" pageWidth="827" pageHeight="1169" math="0" shadow="0">
      <root>
        <mxCell id="0" />
        <mxCell id="1" parent="0" />
        <mxCell id="ZmkryA6pYVP38JDTjNkh-165" value="Начало" style="html=1;dashed=0;whiteSpace=wrap;shape=mxgraph.dfd.start" vertex="1" parent="1">
          <mxGeometry x="340" y="2390" width="160" height="30" as="geometry" />
        </mxCell>
        <mxCell id="ZmkryA6pYVP38JDTjNkh-166" value="hold, containers,&amp;nbsp;&lt;div&gt;order&lt;/div&gt;" style="shape=parallelogram;perimeter=parallelogramPerimeter;whiteSpace=wrap;html=1;dashed=0;" vertex="1" parent="1">
          <mxGeometry x="340" y="2440" width="160" height="30" as="geometry" />
        </mxCell>
        <mxCell id="ZmkryA6pYVP38JDTjNkh-167" value="" style="endArrow=none;html=1;rounded=0;entryX=0.5;entryY=0.5;entryDx=0;entryDy=15;entryPerimeter=0;exitX=0.5;exitY=0;exitDx=0;exitDy=0;" edge="1" parent="1" source="ZmkryA6pYVP38JDTjNkh-166" target="ZmkryA6pYVP38JDTjNkh-165">
          <mxGeometry width="50" height="50" relative="1" as="geometry">
            <mxPoint x="440" y="2540" as="sourcePoint" />
            <mxPoint x="490" y="2490" as="targetPoint" />
          </mxGeometry>
        </mxCell>
        <mxCell id="ZmkryA6pYVP38JDTjNkh-168" value="" style="endArrow=none;html=1;rounded=0;entryX=0.5;entryY=0.5;entryDx=0;entryDy=15;entryPerimeter=0;exitX=0.5;exitY=0;exitDx=0;exitDy=0;" edge="1" parent="1">
          <mxGeometry width="50" height="50" relative="1" as="geometry">
            <mxPoint x="420" y="2520" as="sourcePoint" />
            <mxPoint x="419.5" y="2490" as="targetPoint" />
          </mxGeometry>
        </mxCell>
        <mxCell id="ZmkryA6pYVP38JDTjNkh-169" value="Создать пустой массив coor с координатами упакованных контейнеров" style="rounded=0;whiteSpace=wrap;html=1;" vertex="1" parent="1">
          <mxGeometry x="340" y="2490" width="160" height="50" as="geometry" />
        </mxCell>
        <mxCell id="ZmkryA6pYVP38JDTjNkh-170" value="totalWeight = 0&lt;div&gt;totalVolume = 0&lt;/div&gt;" style="rounded=0;whiteSpace=wrap;html=1;" vertex="1" parent="1">
          <mxGeometry x="340" y="2560" width="160" height="40" as="geometry" />
        </mxCell>
        <mxCell id="ZmkryA6pYVP38JDTjNkh-171" value="Создать массив EMS с ems, равным hold" style="rounded=0;whiteSpace=wrap;html=1;" vertex="1" parent="1">
          <mxGeometry x="340" y="2620" width="160" height="40" as="geometry" />
        </mxCell>
        <mxCell id="ZmkryA6pYVP38JDTjNkh-172" value="Цикл id по всем&amp;nbsp;&lt;div&gt;значениям в order&lt;/div&gt;" style="shape=loopLimit;whiteSpace=wrap;html=1;" vertex="1" parent="1">
          <mxGeometry x="340" y="2680" width="160" height="40" as="geometry" />
        </mxCell>
        <mxCell id="ZmkryA6pYVP38JDTjNkh-173" value="Получение контейнера&amp;nbsp;&lt;div&gt;по id&lt;div&gt;c = containers[id]&lt;/div&gt;&lt;/div&gt;" style="rounded=0;whiteSpace=wrap;html=1;" vertex="1" parent="1">
          <mxGeometry x="340" y="2740" width="160" height="50" as="geometry" />
        </mxCell>
        <mxCell id="ZmkryA6pYVP38JDTjNkh-174" value="&lt;div&gt;&lt;br&gt;&lt;/div&gt;Контейнер помещается&lt;div&gt;&amp;nbsp;по весу&lt;/div&gt;" style="rhombus;whiteSpace=wrap;html=1;" vertex="1" parent="1">
          <mxGeometry x="335" y="2810" width="170" height="60" as="geometry" />
        </mxCell>
        <mxCell id="ZmkryA6pYVP38JDTjNkh-175" value="i = 0" style="rounded=0;whiteSpace=wrap;html=1;" vertex="1" parent="1">
          <mxGeometry x="500" y="2860" width="150" height="30" as="geometry" />
        </mxCell>
        <mxCell id="ZmkryA6pYVP38JDTjNkh-176" value="" style="endArrow=none;html=1;rounded=0;entryX=1;entryY=0.5;entryDx=0;entryDy=0;exitX=0.5;exitY=0;exitDx=0;exitDy=0;" edge="1" parent="1" source="ZmkryA6pYVP38JDTjNkh-175">
          <mxGeometry width="50" height="50" relative="1" as="geometry">
            <mxPoint x="395" y="3010" as="sourcePoint" />
            <mxPoint x="505" y="2840" as="targetPoint" />
            <Array as="points">
              <mxPoint x="575" y="2840" />
              <mxPoint x="505" y="2840" />
            </Array>
          </mxGeometry>
        </mxCell>
        <mxCell id="ZmkryA6pYVP38JDTjNkh-177" value="да" style="text;html=1;align=center;verticalAlign=middle;whiteSpace=wrap;rounded=0;" vertex="1" parent="1">
          <mxGeometry x="490" y="2810" width="60" height="30" as="geometry" />
        </mxCell>
        <mxCell id="ZmkryA6pYVP38JDTjNkh-178" value="Цикл ems по всем значениям EMS, пока не будет найден подходящий для c" style="shape=loopLimit;whiteSpace=wrap;html=1;" vertex="1" parent="1">
          <mxGeometry x="500" y="2910" width="160" height="60" as="geometry" />
        </mxCell>
        <mxCell id="ZmkryA6pYVP38JDTjNkh-180" value="Попробовать упаковать c в ems" style="shape=process;whiteSpace=wrap;html=1;backgroundOutline=1;" vertex="1" parent="1">
          <mxGeometry x="500" y="2990" width="160" height="60" as="geometry" />
        </mxCell>
        <mxCell id="ZmkryA6pYVP38JDTjNkh-181" value="ems" style="shape=loopLimit;whiteSpace=wrap;html=1;direction=west;" vertex="1" parent="1">
          <mxGeometry x="500" y="3070" width="160" height="60" as="geometry" />
        </mxCell>
        <mxCell id="ZmkryA6pYVP38JDTjNkh-182" value="Найден&amp;nbsp;&lt;div&gt;подходящий ems&lt;/div&gt;" style="rhombus;whiteSpace=wrap;html=1;" vertex="1" parent="1">
          <mxGeometry x="495" y="3150" width="170" height="60" as="geometry" />
        </mxCell>
        <mxCell id="ZmkryA6pYVP38JDTjNkh-183" value="Добавить координаты c в coor&lt;div&gt;totalWeight += c.weight&lt;/div&gt;&lt;div&gt;totalVolume += c.volume&lt;/div&gt;" style="rounded=0;whiteSpace=wrap;html=1;" vertex="1" parent="1">
          <mxGeometry x="650" y="3200" width="155" height="70" as="geometry" />
        </mxCell>
        <mxCell id="ZmkryA6pYVP38JDTjNkh-184" value="" style="endArrow=none;html=1;rounded=0;entryX=1;entryY=0.5;entryDx=0;entryDy=0;exitX=0.5;exitY=0;exitDx=0;exitDy=0;" edge="1" parent="1" source="ZmkryA6pYVP38JDTjNkh-183">
          <mxGeometry width="50" height="50" relative="1" as="geometry">
            <mxPoint x="555" y="3350" as="sourcePoint" />
            <mxPoint x="665" y="3180" as="targetPoint" />
            <Array as="points">
              <mxPoint x="728" y="3180" />
              <mxPoint x="665" y="3180" />
            </Array>
          </mxGeometry>
        </mxCell>
        <mxCell id="ZmkryA6pYVP38JDTjNkh-185" value="да" style="text;html=1;align=center;verticalAlign=middle;whiteSpace=wrap;rounded=0;" vertex="1" parent="1">
          <mxGeometry x="650" y="3150" width="60" height="30" as="geometry" />
        </mxCell>
        <mxCell id="ZmkryA6pYVP38JDTjNkh-186" value="Обновить EMS" style="shape=process;whiteSpace=wrap;html=1;backgroundOutline=1;" vertex="1" parent="1">
          <mxGeometry x="650" y="3290" width="160" height="60" as="geometry" />
        </mxCell>
        <mxCell id="ZmkryA6pYVP38JDTjNkh-189" value="" style="endArrow=none;html=1;rounded=0;entryX=0;entryY=0.5;entryDx=0;entryDy=0;" edge="1" parent="1" target="ZmkryA6pYVP38JDTjNkh-182">
          <mxGeometry width="50" height="50" relative="1" as="geometry">
            <mxPoint x="590" y="3373" as="sourcePoint" />
            <mxPoint x="490" y="3180" as="targetPoint" />
            <Array as="points">
              <mxPoint x="450" y="3373" />
              <mxPoint x="450" y="3180" />
            </Array>
          </mxGeometry>
        </mxCell>
        <mxCell id="ZmkryA6pYVP38JDTjNkh-190" value="" style="endArrow=none;html=1;rounded=0;entryX=0.5;entryY=0.5;entryDx=0;entryDy=15;entryPerimeter=0;exitX=0.5;exitY=0;exitDx=0;exitDy=0;" edge="1" parent="1">
          <mxGeometry width="50" height="50" relative="1" as="geometry">
            <mxPoint x="730" y="3293" as="sourcePoint" />
            <mxPoint x="730" y="3273" as="targetPoint" />
          </mxGeometry>
        </mxCell>
        <mxCell id="ZmkryA6pYVP38JDTjNkh-191" value="" style="endArrow=none;html=1;rounded=0;entryX=0.5;entryY=0.5;entryDx=0;entryDy=15;entryPerimeter=0;" edge="1" parent="1">
          <mxGeometry width="50" height="50" relative="1" as="geometry">
            <mxPoint x="590" y="3373" as="sourcePoint" />
            <mxPoint x="730" y="3353" as="targetPoint" />
            <Array as="points">
              <mxPoint x="730" y="3373" />
            </Array>
          </mxGeometry>
        </mxCell>
        <mxCell id="ZmkryA6pYVP38JDTjNkh-192" value="id" style="shape=loopLimit;whiteSpace=wrap;html=1;direction=west;" vertex="1" parent="1">
          <mxGeometry x="330" y="3400" width="160" height="30" as="geometry" />
        </mxCell>
        <mxCell id="ZmkryA6pYVP38JDTjNkh-193" value="" style="endArrow=none;html=1;rounded=0;entryX=0.5;entryY=0.5;entryDx=0;entryDy=15;entryPerimeter=0;exitX=0.5;exitY=0;exitDx=0;exitDy=0;" edge="1" parent="1">
          <mxGeometry width="50" height="50" relative="1" as="geometry">
            <mxPoint x="580" y="3150" as="sourcePoint" />
            <mxPoint x="580" y="3130" as="targetPoint" />
          </mxGeometry>
        </mxCell>
        <mxCell id="ZmkryA6pYVP38JDTjNkh-194" value="" style="endArrow=none;html=1;rounded=0;entryX=0.5;entryY=0.5;entryDx=0;entryDy=15;entryPerimeter=0;exitX=0.5;exitY=0;exitDx=0;exitDy=0;" edge="1" parent="1">
          <mxGeometry width="50" height="50" relative="1" as="geometry">
            <mxPoint x="580" y="3070" as="sourcePoint" />
            <mxPoint x="580" y="3050" as="targetPoint" />
          </mxGeometry>
        </mxCell>
        <mxCell id="ZmkryA6pYVP38JDTjNkh-195" value="" style="endArrow=none;html=1;rounded=0;entryX=0.5;entryY=0.5;entryDx=0;entryDy=15;entryPerimeter=0;exitX=0.5;exitY=0;exitDx=0;exitDy=0;" edge="1" parent="1">
          <mxGeometry width="50" height="50" relative="1" as="geometry">
            <mxPoint x="580" y="2990" as="sourcePoint" />
            <mxPoint x="580" y="2970" as="targetPoint" />
          </mxGeometry>
        </mxCell>
        <mxCell id="ZmkryA6pYVP38JDTjNkh-196" value="" style="endArrow=none;html=1;rounded=0;entryX=0.5;entryY=0.5;entryDx=0;entryDy=15;entryPerimeter=0;exitX=0.5;exitY=0;exitDx=0;exitDy=0;" edge="1" parent="1">
          <mxGeometry width="50" height="50" relative="1" as="geometry">
            <mxPoint x="580" y="2910" as="sourcePoint" />
            <mxPoint x="580" y="2890" as="targetPoint" />
          </mxGeometry>
        </mxCell>
        <mxCell id="ZmkryA6pYVP38JDTjNkh-197" value="" style="endArrow=none;html=1;rounded=0;entryX=0.5;entryY=0.5;entryDx=0;entryDy=15;entryPerimeter=0;exitX=0.5;exitY=0;exitDx=0;exitDy=0;" edge="1" parent="1">
          <mxGeometry width="50" height="50" relative="1" as="geometry">
            <mxPoint x="420" y="2810" as="sourcePoint" />
            <mxPoint x="420" y="2790" as="targetPoint" />
          </mxGeometry>
        </mxCell>
        <mxCell id="ZmkryA6pYVP38JDTjNkh-198" value="" style="endArrow=none;html=1;rounded=0;entryX=0.5;entryY=0.5;entryDx=0;entryDy=15;entryPerimeter=0;exitX=0.5;exitY=0;exitDx=0;exitDy=0;" edge="1" parent="1">
          <mxGeometry width="50" height="50" relative="1" as="geometry">
            <mxPoint x="420" y="2740" as="sourcePoint" />
            <mxPoint x="420" y="2720" as="targetPoint" />
          </mxGeometry>
        </mxCell>
        <mxCell id="ZmkryA6pYVP38JDTjNkh-199" value="" style="endArrow=none;html=1;rounded=0;entryX=0.5;entryY=0.5;entryDx=0;entryDy=15;entryPerimeter=0;exitX=0.5;exitY=0;exitDx=0;exitDy=0;" edge="1" parent="1">
          <mxGeometry width="50" height="50" relative="1" as="geometry">
            <mxPoint x="420" y="2680" as="sourcePoint" />
            <mxPoint x="420" y="2660" as="targetPoint" />
          </mxGeometry>
        </mxCell>
        <mxCell id="ZmkryA6pYVP38JDTjNkh-200" value="" style="endArrow=none;html=1;rounded=0;entryX=0.5;entryY=0.5;entryDx=0;entryDy=15;entryPerimeter=0;exitX=0.5;exitY=0;exitDx=0;exitDy=0;" edge="1" parent="1">
          <mxGeometry width="50" height="50" relative="1" as="geometry">
            <mxPoint x="420" y="2620" as="sourcePoint" />
            <mxPoint x="420" y="2600" as="targetPoint" />
          </mxGeometry>
        </mxCell>
        <mxCell id="ZmkryA6pYVP38JDTjNkh-201" value="" style="endArrow=none;html=1;rounded=0;entryX=0.5;entryY=0.5;entryDx=0;entryDy=15;entryPerimeter=0;exitX=0.5;exitY=0;exitDx=0;exitDy=0;" edge="1" parent="1">
          <mxGeometry width="50" height="50" relative="1" as="geometry">
            <mxPoint x="420" y="2560" as="sourcePoint" />
            <mxPoint x="420" y="2540" as="targetPoint" />
          </mxGeometry>
        </mxCell>
        <mxCell id="ZmkryA6pYVP38JDTjNkh-202" value="" style="endArrow=none;html=1;rounded=0;entryX=0.5;entryY=0.5;entryDx=0;entryDy=15;entryPerimeter=0;exitX=0.5;exitY=0;exitDx=0;exitDy=0;" edge="1" parent="1">
          <mxGeometry width="50" height="50" relative="1" as="geometry">
            <mxPoint x="420" y="2490" as="sourcePoint" />
            <mxPoint x="420" y="2470" as="targetPoint" />
          </mxGeometry>
        </mxCell>
        <mxCell id="ZmkryA6pYVP38JDTjNkh-204" value="" style="endArrow=none;html=1;rounded=0;entryX=0;entryY=0.5;entryDx=0;entryDy=0;exitX=0.5;exitY=1;exitDx=0;exitDy=0;" edge="1" parent="1" source="ZmkryA6pYVP38JDTjNkh-192" target="ZmkryA6pYVP38JDTjNkh-174">
          <mxGeometry width="50" height="50" relative="1" as="geometry">
            <mxPoint x="310" y="3390" as="sourcePoint" />
            <mxPoint x="310" y="3010" as="targetPoint" />
            <Array as="points">
              <mxPoint x="410" y="3390" />
              <mxPoint x="310" y="3390" />
              <mxPoint x="310" y="2840" />
            </Array>
          </mxGeometry>
        </mxCell>
        <mxCell id="ZmkryA6pYVP38JDTjNkh-205" value="" style="endArrow=none;html=1;rounded=0;" edge="1" parent="1">
          <mxGeometry width="50" height="50" relative="1" as="geometry">
            <mxPoint x="410" y="3390" as="sourcePoint" />
            <mxPoint x="580" y="3370" as="targetPoint" />
            <Array as="points">
              <mxPoint x="580" y="3390" />
            </Array>
          </mxGeometry>
        </mxCell>
        <mxCell id="ZmkryA6pYVP38JDTjNkh-206" value="coor, totalWeight,&amp;nbsp;&lt;div&gt;totalVolume&lt;/div&gt;" style="shape=parallelogram;perimeter=parallelogramPerimeter;whiteSpace=wrap;html=1;dashed=0;" vertex="1" parent="1">
          <mxGeometry x="320" y="3450" width="167.5" height="40" as="geometry" />
        </mxCell>
        <mxCell id="ZmkryA6pYVP38JDTjNkh-207" value="Конец" style="html=1;dashed=0;whiteSpace=wrap;shape=mxgraph.dfd.start" vertex="1" parent="1">
          <mxGeometry x="327.5" y="3507" width="160" height="30" as="geometry" />
        </mxCell>
        <mxCell id="ZmkryA6pYVP38JDTjNkh-208" value="" style="endArrow=none;html=1;rounded=0;entryX=0.5;entryY=0.5;entryDx=0;entryDy=15;entryPerimeter=0;" edge="1" parent="1">
          <mxGeometry width="50" height="50" relative="1" as="geometry">
            <mxPoint x="408" y="3510" as="sourcePoint" />
            <mxPoint x="407.5" y="3490" as="targetPoint" />
          </mxGeometry>
        </mxCell>
        <mxCell id="ZmkryA6pYVP38JDTjNkh-209" value="" style="endArrow=none;html=1;rounded=0;entryX=0.5;entryY=0.5;entryDx=0;entryDy=15;entryPerimeter=0;" edge="1" parent="1">
          <mxGeometry width="50" height="50" relative="1" as="geometry">
            <mxPoint x="407.5" y="3450" as="sourcePoint" />
            <mxPoint x="407" y="3430" as="targetPoint" />
          </mxGeometry>
        </mxCell>
      </root>
    </mxGraphModel>
  </diagram>
</mxfile>
